<svg width="212" height="215" viewBox="0 0 212 215" fill="none" xmlns="http://www.w3.org/2000/svg">
<g filter="url(#filter0_d_10_52)">
<rect x="6" width="200" height="200" rx="20" fill="url(#paint0_linear_10_52)" shape-rendering="crispEdges"/>
<path d="M97.6667 158.333C134.486 158.333 164.333 128.486 164.333 91.6667C164.333 54.8477 134.486 25 97.6667 25C60.8477 25 31 54.8477 31 91.6667C31 128.486 60.8477 158.333 97.6667 158.333Z" stroke="black" stroke-width="2" stroke-linecap="round" stroke-linejoin="round"/>
<path d="M181 175L144.75 138.75" stroke="black" stroke-width="15" stroke-linecap="round" stroke-linejoin="round"/>
<path fill-rule="evenodd" clip-rule="evenodd" d="M80.3395 36.9814C69.4814 40.4247 59.8936 47.0214 52.7968 55.9315C45.7 64.8417 41.4154 75.6623 40.4884 87.0155H68.2713C68.476 80.2186 69.1085 73.5209 70.1628 67.1705C71.4465 59.3938 73.3566 52.2248 75.8062 46.0853C77.0463 42.9231 78.5633 39.8766 80.3395 36.9814ZM97.6667 25C88.9119 25 80.2428 26.7244 72.1544 30.0747C64.0661 33.425 56.7168 38.3356 50.5262 44.5262C44.3356 50.7168 39.425 58.0661 36.0747 66.1544C32.7244 74.2428 31 82.9119 31 91.6667C31 100.421 32.7244 109.091 36.0747 117.179C39.425 125.267 44.3356 132.617 50.5262 138.807C56.7168 144.998 64.0661 149.908 72.1544 153.259C80.2428 156.609 88.9119 158.333 97.6667 158.333C115.348 158.333 132.305 151.31 144.807 138.807C157.31 126.305 164.333 109.348 164.333 91.6667C164.333 73.9856 157.31 57.0286 144.807 44.5262C132.305 32.0238 115.348 25 97.6667 25ZM97.6667 34.3023C96.0481 34.3023 93.9519 35.0837 91.5209 37.6015C89.0651 40.1442 86.6155 44.1194 84.445 49.5395C82.293 54.9287 80.538 61.4279 79.3349 68.6961C78.3736 74.5256 77.7845 80.7085 77.586 87.0155H117.747C117.569 80.8772 116.985 74.7573 115.998 68.6961C114.795 61.4279 113.04 54.9287 110.888 49.5395C108.718 44.1194 106.268 40.1442 103.819 37.6015C101.381 35.0837 99.2915 34.3023 97.6667 34.3023ZM127.062 87.0155C126.876 80.3656 126.245 73.7357 125.171 67.1705C123.887 59.3938 121.977 52.2248 119.527 46.0853C118.285 42.9228 116.766 39.8763 114.988 36.9814C123.757 39.7545 131.729 44.5979 138.231 51.1023C147.851 60.7249 153.737 73.4537 154.839 87.0155H127.062ZM117.747 96.3178H77.586C77.7783 102.625 78.3736 108.808 79.3349 114.637C80.538 121.905 82.293 128.405 84.445 133.788C86.6155 139.214 89.0651 143.189 91.5147 145.732C93.9519 148.25 96.0419 149.031 97.6667 149.031C99.2853 149.031 101.381 148.25 103.812 145.732C106.268 143.189 108.718 139.214 110.888 133.794C113.04 128.405 114.795 121.905 115.998 114.637C116.96 108.808 117.549 102.625 117.747 96.3178ZM114.994 146.352C116.668 143.66 118.188 140.591 119.521 137.248C121.977 131.109 123.887 123.94 125.171 116.163C126.242 109.597 126.872 102.968 127.056 96.3178H154.839C153.915 107.672 149.632 118.494 142.534 127.405C135.437 136.316 125.854 142.912 114.994 146.352ZM80.3395 146.352C78.5654 143.456 77.0505 140.41 75.8124 137.248C73.3566 131.109 71.4465 123.94 70.1628 116.163C69.0909 109.597 68.461 102.968 68.2775 96.3178H40.4884C41.4117 107.671 45.6942 118.493 52.7903 127.404C59.8864 136.314 69.4808 142.911 80.3395 146.352Z" fill="black" stroke="black" stroke-width="3"/>
</g>
<defs>
<filter id="filter0_d_10_52" x="0" y="0" width="212" height="215" filterUnits="userSpaceOnUse" color-interpolation-filters="sRGB">
<feFlood flood-opacity="0" result="BackgroundImageFix"/>
<feColorMatrix in="SourceAlpha" type="matrix" values="0 0 0 0 0 0 0 0 0 0 0 0 0 0 0 0 0 0 127 0" result="hardAlpha"/>
<feOffset dy="9"/>
<feGaussianBlur stdDeviation="3"/>
<feComposite in2="hardAlpha" operator="out"/>
<feColorMatrix type="matrix" values="0 0 0 0 0 0 0 0 0 0 0 0 0 0 0 0 0 0 0.2 0"/>
<feBlend mode="normal" in2="BackgroundImageFix" result="effect1_dropShadow_10_52"/>
<feBlend mode="normal" in="SourceGraphic" in2="effect1_dropShadow_10_52" result="shape"/>
</filter>
<linearGradient id="paint0_linear_10_52" x1="106" y1="-120.833" x2="106" y2="333.333" gradientUnits="userSpaceOnUse">
<stop offset="0.278717" stop-color="#1B4332"/>
<stop offset="0.881249" stop-color="#29A872" stop-opacity="0.5"/>
</linearGradient>
</defs>
</svg>
